<svg width="30" height="30" viewBox="0 0 330 330" xmlns="http://www.w3.org/2000/svg">&gt;<path fill="none" d="M-1-1h582v402H-1z"/><g><path d="M-35-20h582v402H-35V-20z" fill="none"/><path fill="null" stroke-width="null" stroke-opacity="null" fill-opacity="null" d="M234.52 202.96c-36.709 29.873-94.413 29.952-128.64.184l-15.867 12.912c42.34 36.825 113.77 36.693 159.226-.3l-14.716-12.798h-.001v.001h-.002 0v.001h0z" stroke="null"/><path stroke="#000" d="M99.303 128.016c9.895-31.305 48.664 0 0 40.248-48.665-40.248-9.895-71.553 0-40.248zM234.303 126.016c9.895-31.305 48.664 0 0 40.248-48.665-40.248-9.895-71.553 0-40.248z" stroke-width="1.5"/></g></svg>
