<svg width="30" height="30" viewBox="0 0 330 330" xmlns="http://www.w3.org/2000/svg">&gt;<path fill="none" d="M-1-1h582v402H-1z"/><g><path fill="#000" d="M164.999 179.823zM115.14 147.14c3.73-3.72 5.86-8.88 5.86-14.14s-2.13-10.42-5.86-14.141C111.42 115.14 106.26 113 101 113c-5.27 0-10.42 2.14-14.14 5.859C83.14 122.58 81 127.74 81 133s2.14 10.42 5.86 14.14c3.72 3.72 8.88 5.86 14.14 5.86s10.42-2.14 14.14-5.86zM229 113c-5.27 0-10.42 2.14-14.14 5.859C211.13 122.58 209 127.74 209 133s2.13 10.42 5.86 14.14c3.72 3.72 8.88 5.86 14.14 5.86s10.42-2.141 14.14-5.86c3.73-3.72 5.86-8.88 5.86-14.14s-2.13-10.42-5.86-14.141C239.42 115.14 234.26 113 229 113z"/><path stroke="#000" fill="#000" d="M104.7 243.005c36.884-29.656 94.588-29.393 128.639.576l15.943-12.818c-42.123-37.074-113.552-37.364-159.226-.641l14.641 12.886v-.001h.002v-.001h.001v-.001h0z"/></g></svg>
