<svg xmlns="http://www.w3.org/2000/svg" xmlns:xlink="http://www.w3.org/1999/xlink" width="30" height="30" viewBox="0 0 40 40"><defs><path d="M445.97 396.41c0 31.18-50.33 56.49-112.33 56.49S221.3 427.59 221.3 396.41c0-31.18 50.34-56.5 112.34-56.5s112.33 25.32 112.33 56.5z" id="a"/><path d="M28 28.88c0 2.17-3.58 3.92-8 3.92s-8-1.75-8-3.92c0-2.16 3.58-3.92 8-3.92s8 1.76 8 3.92z" id="b"/><path d="M15.53 19.05a1.765 1.765 0 11-3.53.01 1.765 1.765 0 013.53-.01z" id="c"/><path d="M28 19.05a1.765 1.765 0 11-3.53.01 1.765 1.765 0 013.53-.01z" id="d"/><path d="M9.37 10.02l9.83 6.88-1.04 1.48-9.83-6.88 1.04-1.48z" id="e"/><path d="M31.67 11.5l-9.83 6.88-1.04-1.48 9.83-6.88 1.04 1.48z" id="f"/></defs><use xlink:href="#a" fill="#913164"/><use xlink:href="#b"/><use xlink:href="#c" fill="#0b0200"/><use xlink:href="#d" fill="#0b0200"/><use xlink:href="#e" fill="#0b0200"/><use xlink:href="#f" fill="#0b0200"/></svg>
